# WaveFront *.obj file (generated by CINEMA 4D)

mtllib ./plataforma2.mtl

v -1.15311026573181 0.25809469819069 -0.26170229911804
v -1.0447416305542 0.25809469819069 -0.55689263343811
v -1.0447416305542 0.1565809994936 -0.55689263343811
v -1.15311026573181 0.1565809994936 -0.26170229911804
v -0.87108093500137 0.25809469819069 -0.79073464870453
v -0.87108093500137 0.1565809994936 -0.79073464870453
v -0.64561724662781 0.25809469819069 -1.00290954113007
v -0.64561724662781 0.1565809994936 -1.00290954113007
v -0.37759140133858 0.25809469819069 -1.12437236309052
v -0.37759140133858 0.1565809994936 -1.12437236309052
v 0.00731028290465 0.25809469819069 -1.18629813194275
v 0.00731028290465 0.1565809994936 -1.18629813194275
v 0.35956373810768 0.25809469819069 -1.12690627574921
v 0.35956373810768 0.1565809994936 -1.12690627574921
v 0.66105931997299 0.25809469819069 -0.98530542850494
v 0.66105931997299 0.1565809994936 -0.98530542850494
v 0.90164339542389 0.25809469819069 -0.78275001049042
v 0.90164339542389 0.1565809994936 -0.78275001049042
v 1.05984389781952 0.25809469819069 -0.55524408817291
v 1.05984389781952 0.1565809994936 -0.55524408817291
v 1.15554332733154 0.25809469819069 -0.26586228609085
v 1.15554332733154 0.1565809994936 -0.26586228609085
v 1.15970301628113 0.25809469819069 0.26658397912979
v 1.15970301628113 0.1565809994936 0.26658397912979
v 1.07052361965179 0.25809469819069 0.55262100696564
v 1.07052361965179 0.1565809994936 0.55262100696564
v 0.92225533723831 0.25809469819069 0.77619397640228
v 0.92225533723831 0.1565809994936 0.77619397640228
v 0.68658238649368 0.25809469819069 0.98586839437485
v 0.68658238649368 0.1565809994936 0.98586839437485
v 0.40174603462219 0.25809469819069 1.13342046737671
v 0.40174603462219 0.1565809994936 1.13342046737671
v 0.03657451272011 0.25809469819069 1.19004535675049
v 0.03657451272011 0.1565809994936 1.19004535675049
v -0.38511428236961 0.25809469819069 1.12343764305115
v -0.38511428236961 0.1565809994936 1.12343764305115
v -0.66948598623276 0.25809469819069 0.9699592590332
v -0.66948598623276 0.1565809994936 0.9699592590332
v -0.89592087268829 0.25809469819069 0.7616753578186
v -0.89592087268829 0.1565809994936 0.7616753578186
v -1.05769121646881 0.25809469819069 0.5391526222229
v -1.05769121646881 0.1565809994936 0.5391526222229
v -1.1406307220459 0.25809469819069 0.26242437958717
v -1.1406307220459 0.1565809994936 0.26242437958717
v 1.41027271747589 0.14070895314217 -1.41027307510376
v 0.70513623952866 0.14070895314217 -1.41027295589447
v 0.70513623952866 0.14070895314217 -1.26924550533295
v 1.26924550533295 0.14070895314217 -0.70513653755188
v 1.41027271747589 0.14070895314217 -0.70513653755188
v 1.26924550533295 0.14070895314217 0.70513647794724
v -0.70513653755188 0.14070895314217 -1.26924550533295
v -1.26924574375153 0.14070895314217 -0.70513647794724
v -1.26924574375153 0.14070895314217 0.70513653755188
v -1.41027319431305 0.14070895314217 -1.41027283668518
v -1.41027307510376 0.14070895314217 -0.70513647794724
v -0.70513653755188 0.14070895314217 -1.41027295589447
v -0.70513641834259 0.14070895314217 1.26924550533295
v 0.70513641834259 0.14070895314217 1.26924550533295
v -1.41027283668518 0.14070895314217 1.41027307510376
v -0.70513641834259 0.14070895314217 1.41027295589447
v -1.41027307510376 0.14070895314217 0.70513653755188
v 1.41027283668518 0.14070895314217 1.41027283668518
v 1.41027271747589 0.14070895314217 0.70513647794724
v 0.70513641834259 0.14070895314217 1.41027295589447
v -1.98629987239838 -1.63700532913208 1.98629999160767
v -0.99314993619919 -1.63700532913208 1.98629975318909
v -1.98629999160767 -1.63700532913208 0.99314999580383
v -1.78767001628876 -1.63700532913208 0.99314999580383
v -1.78767001628876 -1.63700532913208 -0.99314987659454
v -1.98629999160767 -1.63700532913208 -0.99314987659454
v -1.98630011081696 -1.63700532913208 -1.98629975318909
v -0.99315005540848 -1.63700532913208 -1.98629975318909
v -0.99315005540848 -1.63700532913208 -1.78767001628876
v 0.99314975738525 -1.63700532913208 -1.78767001628876
v 0.99314975738525 -1.63700532913208 -1.98629975318909
v 1.9862996339798 -1.63700532913208 -1.98629999160767
v 1.98629975318909 -1.63700532913208 -0.99314999580383
v 1.78766977787018 -1.63700532913208 -0.99314999580383
v 1.78766977787018 -1.63700532913208 0.99314987659454
v 1.98629975318909 -1.63700532913208 0.99314987659454
v 1.98629987239838 -1.63700532913208 1.98629975318909
v 0.99314987659454 -1.63700532913208 1.98629975318909
v 0.99314987659454 -1.63700532913208 1.78767001628876
v -0.99314993619919 -1.63700532913208 1.78767001628876
# 84 vertices

vn -0.90166538953781 0 -0.43243435025215
vn -0.85594362020493 0 -0.51706916093826
vn -0.97428143024445 0 -0.22533474862576
vn 0 0 0
vn -0.99492931365967 0 -0.10057683289051
vn -0.76632243394852 0 -0.64245611429214
vn -0.72701674699783 0 -0.68661969900131
vn -0.60170835256577 0 -0.79871588945389
vn -0.50975173711777 0 -0.86032152175903
vn -0.33072173595428 0 -0.94372832775116
vn -0.24541111290455 0 -0.96941912174225
vn -0.05108018219471 0 -0.99869453907013
vn 0.05858312174678 0 -0.99828255176544
vn 0.25463226437569 0 -0.96703797578812
vn 0.34162998199463 0 -0.93983453512192
vn 0.50187587738037 0 -0.86493963003159
vn 0.57541280984879 0 -0.8178631067276
vn 0.70849442481995 0 -0.7057164311409
vn 0.76793712377548 0 -0.64052522182465
vn 0.87184864282608 0 -0.48977538943291
vn 0.91505169868469 0 -0.4033365547657
vn 0.97678369283676 0 -0.21422806382179
vn 0.99381339550018 0 -0.11106258630753
vn 0.99547547101974 0 0.09501899778843
vn 0.98021531105042 0 0.19793429970741
vn 0.92245900630951 0 0.38609498739243
vn 0.88166719675064 0 0.47187176346779
vn 0.78294444084167 0 0.62209159135818
vn 0.72629421949387 0 0.68738400936127
vn 0.60058850049973 0 0.7995582818985
vn 0.53187400102615 0 0.84682351350784
vn 0.36193743348122 0 0.93220239877701
vn 0.25848722457886 0 0.96601468324661
vn 0.0506897829473 0 0.99871444702148
vn -0.05350770056248 0 0.99856746196747
vn -0.26569771766663 0 0.96405637264252
vn -0.37337258458138 0 0.92768144607544
vn -0.54604667425156 0 0.83775478601456
vn -0.61385923624039 0 0.789415538311
vn -0.72411173582077 0 0.68968272209167
vn -0.76825630664825 0 0.64014238119125
vn -0.86949610710144 0 0.49393984675407
vn -0.91981530189514 0 0.3923516869545
vn -0.97960650920868 0 0.20092552900314
vn -0.99365627765656 0 0.11245959997177
vn 0 1 0
vn 0.0191564578563 0.99798387289047 -0.06050780043006
vn 0.05081536993384 0.99853956699371 -0.01834393665195
vn 0.04887511208653 0.99772906303406 -0.04634531959891
vn 0.05583874881268 0.99805611371994 -0.02767630293965
vn 0.11587343364954 0.99323838949203 -0.00713305454701
vn 0.06446978449821 0.99768489599228 0.02164409868419
vn 0.0329842492938 0.99817025661468 -0.05067675560713
vn 0.01886538788676 0.99767762422562 -0.06544805318117
vn 0.00013854321151 0.99327397346497 -0.11578745394945
vn -0.01435744762421 0.99797868728638 -0.06190630048513
vn -0.01868307776749 0.9975745677948 -0.06705174595118
vn -0.04153430834413 0.99775904417038 -0.05245695635676
vn -0.04858008027077 0.99855923652649 -0.02279132045805
vn -0.04943925514817 0.99776470661163 -0.04495893791318
vn -0.05207872390747 0.99825006723404 -0.02801049686968
vn -0.101906478405 0.99477553367615 -0.00605493225157
vn -0.05822322517633 0.9981894493103 0.0150937391445
vn -0.08700526505709 0.99615317583084 0.01043749507517
vn -0.05415927991271 0.99818271398544 0.02642160281539
vn 0 1 0
vn -0.04718209430575 0.997911632061 0.0441161878407
vn -0.01910138502717 0.99796903133392 0.06076942756772
vn -0.0353626832366 0.99818605184555 0.04872445389628
vn -0.01979077234864 0.99767816066742 0.06516595929861
vn 0.00022756528051 0.99260890483856 0.12135691195726
vn 0.01567819714546 0.99775773286819 0.06506655365229
vn 0.02071218565106 0.99731236696243 0.07027798146009
vn 0.04654420912266 0.99724960327148 0.05767874419689
vn 0 1 0
vn 0.10621449351311 0.99429827928543 0.00945507828146
vn 0.05856596305966 0.99790358543396 0.02754103578627
vn 0.05601058527827 0.99713784456253 0.05078290775418
vn 0.00000021893266 0.30824846029282 0.95130586624146
vn 0.00000018093607 0.30824849009514 0.95130586624146
vn 0.00000025692924 0.30824843049049 0.9513059258461
vn -0.95130586624146 0.30824860930443 0.00000024516837
vn -0.95130586624146 0.30824857950211 0.00000036187211
vn -0.95130580663681 0.30824863910675 0.00000012846461
vn 0 -0.15992803871632 -0.98712867498398
vn 0 -0.15992802381516 -0.98712867498398
vn 0 -0.15992805361748 -0.98712867498398
vn -0.96001100540161 0.27996233105659 0
vn -0.96001100540161 0.27996230125427 0
vn 0 -0.15992797911167 0.98712867498398
vn 0 -0.15992799401283 0.98712867498398
vn 0 -0.15992799401283 0.98712867498398
vn -0.95130586624146 0.30824846029282 0.00000015470036
vn -0.95130586624146 0.30824846029282 0.00000018093611
vn -0.95130586624146 0.30824849009514 0.00000012846462
vn -0.00000009046801 0.30824851989746 -0.95130586624146
vn -0.00000018093603 0.30824849009514 -0.95130586624146
vn 0 0.30824854969978 -0.95130586624146
vn 0.98712867498398 -0.1599280834198 0
vn 0.98712867498398 -0.15992809832096 0
vn 0 0.27996242046356 -0.96001094579697
vn 0 0.27996245026588 -0.96001094579697
vn -0.98712867498398 -0.15992803871632 0
vn -0.98712867498398 -0.15992802381516 0
vn -0.98712867498398 -0.15992805361748 0
vn -0.00000021893264 0.30824846029282 -0.95130586624146
vn -0.00000018093604 0.30824846029282 -0.95130586624146
vn -0.00000025692924 0.30824843049049 -0.9513059258461
vn 0.95130586624146 0.30824857950211 -0.0000000642323
vn 0.95130586624146 0.30824857950211 0
vn 0.95130586624146 0.30824854969978 -0.00000012846461
vn 0 -0.15992802381516 0.98712867498398
vn 0 -0.15992803871632 0.98712867498398
vn 0.96001100540161 0.27996233105659 0
vn 0.96001100540161 0.27996230125427 0
vn 0 -0.15992797911167 -0.98712867498398
vn 0 -0.15992796421051 -0.98712867498398
vn 0 -0.15992799401283 -0.98712867498398
vn 0.95130586624146 0.30824851989746 -0.00000015470036
vn 0.95130586624146 0.30824851989746 -0.0000001809361
vn 0.95130586624146 0.30824854969978 -0.00000012846462
vn 0.00000009046804 0.30824851989746 0.95130586624146
vn 0.00000018093608 0.30824851989746 0.95130586624146
vn 0 0.30824851989746 0.95130586624146
vn -0.98712867498398 -0.15992805361748 0
vn -0.98712867498398 -0.15992803871632 0
vn 0 0.27996245026588 0.96001094579697
vn 0.98712867498398 -0.15992806851864 0
# 128 normals

vt 0.91339999437332 -0.0048999786377 0
vt 0.91339999437332 0.01929998397827 0
vt 0.93919998407364 0.01929998397827 0
vt 0.93919998407364 -0.0048999786377 0
vt 0.87199997901916 -0.0048999786377 0
vt 0.87199997901916 0.01929998397827 0
vt 0.8183000087738 -0.0048999786377 0
vt 0.8183000087738 0.01929998397827 0
vt 0.75449997186661 -0.0048999786377 0
vt 0.75449997186661 0.01929998397827 0
vt 0.66280001401901 -0.0048999786377 0
vt 0.66280001401901 0.01929998397827 0
vt 0.57889997959137 -0.0048999786377 0
vt 0.57889997959137 0.01929998397827 0
vt 0.50709998607636 -0.0048999786377 0
vt 0.50709998607636 0.01929998397827 0
vt 0.44980001449585 -0.0048999786377 0
vt 0.44980001449585 0.01929998397827 0
vt 0.41209998726845 -0.0048999786377 0
vt 0.41209998726845 0.01929998397827 0
vt 0.38929998874664 -0.0048999786377 0
vt 0.38929998874664 0.01929998397827 0
vt 0.38830000162125 -0.0048999786377 0
vt 0.38830000162125 0.01929998397827 0
vt 0.40959998965263 -0.0048999786377 0
vt 0.40959998965263 0.01929998397827 0
vt 0.44490000605583 -0.0048999786377 0
vt 0.44490000605583 0.01929998397827 0
vt 0.5009999871254 -0.0048999786377 0
vt 0.5009999871254 0.01929998397827 0
vt 0.56889998912811 -0.0048999786377 0
vt 0.56889998912811 0.01929998397827 0
vt 0.65579998493195 -0.0048999786377 0
vt 0.65579998493195 0.01929998397827 0
vt 0.75629997253418 -0.0048999786377 0
vt 0.75629997253418 0.01929998397827 0
vt 0.82400000095367 -0.0048999786377 0
vt 0.82400000095367 0.01929998397827 0
vt 0.8779000043869 -0.0048999786377 0
vt 0.8779000043869 0.01929998397827 0
vt 0.91649997234344 -0.0048999786377 0
vt 0.91649997234344 0.01929998397827 0
vt 0.93620002269745 -0.0048999786377 0
vt 0.93620002269745 0.01929998397827 0
vt 0.60500001907349 0.57890003919601 0
vt 0.60439997911453 0.75450003147125 0
vt 0.61909997463226 0.66280001401901 0
vt 0.52490001916885 0.87199997901916 0
vt 0.52300000190735 0.44980001449585 0
vt 0.57130002975464 0.50709998607636 0
vt 0.0531999990344 0.65580004453659 0
vt 0.20499999821186 0.40960001945496 0
vt 0.39989998936653 0.38929998874664 0
vt 0.46880000829697 0.41210007667542 0
vt 0.27309998869896 0.38830006122589 0
vt 0.10180000215769 0.5009999871254 0
vt 0.15170000493526 0.44490003585815 0
vt 0.06660000234842 0.56889998912811 0
vt 0.20819999277592 0.91649997234344 0
vt 0.1055999994278 0.82400000095367 0
vt 0.06899999827147 0.75629997253418 0
vt 0.15520000457764 0.8779000043869 0
vt 0.39890000224113 0.93919998407364 0
vt 0.27410000562668 0.93620002269745 0
vt 0.46919998526573 0.91339999437332 0
vt 0.57539999485016 0.8183000087738 0
vt 0.63889998197556 0.49660003185272 0
vt 0.67250001430511 0.49660003185272 0
vt 0.67250001430511 0.32870006561279 0
vt 0.50449997186661 0.36230003833771 0
vt 0.50449997186661 0.32870006561279 0
vt 0.16859999299049 0.36230003833771 0
vt 0.63889998197556 0.83249998092651 0
vt 0.50449997186661 0.96679997444153 0
vt 0.16859999299049 0.96679997444153 0
vt 0.67250001430511 1.00039994716644 0
vt 0.50449997186661 1.00039994716644 0
vt 0.67250001430511 0.83249998092651 0
vt 0.03429999947548 0.83249998092651 0
vt 0.03429999947548 0.49660003185272 0
vt 0.00069999997504 1.00039994716644 0
vt 0.00069999997504 0.83249998092651 0
vt 0.16859999299049 1.00039994716644 0
vt 0.00069999997504 0.32870006561279 0
vt 0.16859999299049 0.32870006561279 0
vt 0.00069999997504 0.49660003185272 0
vt 0.06219999864697 0.00050008296967 0
vt 0.21060000360012 0.28680002689362 0
vt 0.39219999313354 0.28680002689362 0
vt 0.31810000538826 0.00050008296967 0
vt 0.68760001659393 0.00050008296967 0
vt 0.61339998245239 0.28680002689362 0
vt 0.7950000166893 0.28680002689362 0
vt 0.94340002536774 0.00050008296967 0
vt 0.89219999313354 0.00050008296967 0
vt 0.75870001316071 0.28680002689362 0
vt 0.99760001897812 0.29729998111725 0
vt 0.67760002613068 0.39999997615814 0
vt 0.67760002613068 0.90299999713898 0
vt 0.99760001897812 1.00569999217987 0
vt 0.24690000712872 0.28680002689362 0
vt 0.11339999735355 0.00050008296967 0
vt 0.31970000267029 -0.00209999084473 0
# 103 texture coordinates

o Mesh_0023
usemtl default
f 1/3/3 2/2/2 3/1/1
f 3/1/1 4/4/5 1/3/3
f 2/2/2 5/6/7 6/5/6
f 6/5/6 3/1/1 2/2/2
f 5/6/7 7/8/9 8/7/8
f 8/7/8 6/5/6 5/6/7
f 7/8/9 9/10/11 10/9/10
f 10/9/10 8/7/8 7/8/9
f 9/10/11 11/12/13 12/11/12
f 12/11/12 10/9/10 9/10/11
f 11/12/13 13/14/15 14/13/14
f 14/13/14 12/11/12 11/12/13
f 13/14/15 15/16/17 16/15/16
f 16/15/16 14/13/14 13/14/15
f 15/16/17 17/18/19 18/17/18
f 18/17/18 16/15/16 15/16/17
f 17/18/19 19/20/21 20/19/20
f 20/19/20 18/17/18 17/18/19
f 19/20/21 21/22/23 22/21/22
f 22/21/22 20/19/20 19/20/21
f 21/22/23 23/24/25 24/23/24
f 24/23/24 22/21/22 21/22/23
f 23/24/25 25/26/27 26/25/26
f 26/25/26 24/23/24 23/24/25
f 25/26/27 27/28/29 28/27/28
f 28/27/28 26/25/26 25/26/27
f 27/28/29 29/30/31 30/29/30
f 30/29/30 28/27/28 27/28/29
f 29/30/31 31/32/33 32/31/32
f 32/31/32 30/29/30 29/30/31
f 31/32/33 33/34/35 34/33/34
f 34/33/34 32/31/32 31/32/33
f 33/34/35 35/36/37 36/35/36
f 36/35/36 34/33/34 33/34/35
f 35/36/37 37/38/39 38/37/38
f 38/37/38 36/35/36 35/36/37
f 37/38/39 39/40/41 40/39/40
f 40/39/40 38/37/38 37/38/39
f 39/40/41 41/42/43 42/41/42
f 42/41/42 40/39/40 39/40/41
f 41/42/43 43/44/45 44/43/44
f 44/43/44 42/41/42 41/42/43
f 43/44/45 1/3/3 4/4/5
f 4/4/5 44/43/44 43/44/45
f 11/47/46 9/46/46 13/45/46
f 9/46/46 5/48/46 13/45/46
f 5/48/46 17/49/46 13/45/46
f 17/49/46 15/50/46 13/45/46
f 5/48/46 33/51/46 17/49/46
f 33/51/46 25/52/46 17/49/46
f 25/52/46 21/53/46 17/49/46
f 21/53/46 19/54/46 17/49/46
f 25/52/46 23/55/46 21/53/46
f 33/51/46 29/56/46 25/52/46
f 29/56/46 27/57/46 25/52/46
f 33/51/46 31/58/46 29/56/46
f 5/48/46 41/59/46 33/51/46
f 41/59/46 37/60/46 33/51/46
f 37/60/46 35/61/46 33/51/46
f 41/59/46 39/62/46 37/60/46
f 5/48/46 1/63/46 41/59/46
f 1/63/46 43/64/46 41/59/46
f 5/48/46 2/65/46 1/63/46
f 9/46/46 7/66/46 5/48/46
f 45/69/46 46/68/46 47/67/47
f 48/70/48 45/69/46 47/67/47
f 48/70/48 49/71/46 45/69/46
f 18/49/49 48/70/48 47/67/47
f 48/70/48 18/49/49 20/54/50
f 20/54/50 22/53/51 48/70/48
f 50/72/52 48/70/48 22/53/51
f 18/49/49 47/67/47 16/50/53
f 14/45/54 16/50/53 47/67/47
f 47/67/47 12/47/55 14/45/54
f 47/67/47 51/73/56 12/47/55
f 10/46/57 12/47/55 51/73/56
f 51/73/56 8/66/58 10/46/57
f 8/66/58 51/73/56 52/74/59
f 8/66/58 52/74/59 6/48/60
f 3/65/61 6/48/60 52/74/59
f 52/74/59 4/63/62 3/65/61
f 52/74/59 53/75/63 4/63/62
f 4/63/62 53/75/63 44/64/64
f 42/59/65 44/64/64 53/75/63
f 51/73/56 54/76/46 52/74/59
f 54/76/46 55/77/46 52/74/59
f 51/73/56 56/78/66 54/76/46
f 53/75/63 40/62/67 42/59/65
f 40/62/67 53/75/63 57/79/68
f 40/62/67 57/79/68 38/60/69
f 36/61/70 38/60/69 57/79/68
f 57/79/68 34/51/71 36/61/70
f 57/79/68 58/80/72 34/51/71
f 32/58/73 34/51/71 58/80/72
f 58/80/72 30/56/74 32/58/73
f 53/75/63 59/81/46 57/79/68
f 59/81/46 60/82/46 57/79/68
f 53/75/63 61/83/75 59/81/46
f 50/72/52 22/53/51 24/55/76
f 50/72/52 24/55/76 26/52/77
f 26/52/77 28/57/78 50/72/52
f 30/56/74 50/72/52 28/57/78
f 30/56/74 58/80/72 50/72/52
f 58/80/72 62/84/46 50/72/52
f 62/84/46 63/85/66 50/72/52
f 58/80/72 64/86/46 62/84/46
f 60/89/79 59/88/80 65/87/79
f 65/87/79 66/90/81 60/89/79
f 59/93/82 61/92/83 67/91/82
f 67/91/82 65/94/84 59/93/82
f 61/93/85 53/96/86 68/95/85
f 68/95/85 67/94/87 61/93/85
f 53/99/88 52/98/89 69/97/88
f 69/97/88 68/100/88 53/99/88
f 52/101/90 55/88/91 70/87/90
f 70/87/90 69/102/92 52/101/90
f 55/89/93 54/88/94 71/87/93
f 71/87/93 70/103/95 55/89/93
f 54/93/96 56/92/97 72/91/96
f 72/91/96 71/94/98 54/93/96
f 56/93/99 51/96/99 73/95/99
f 73/95/99 72/94/100 56/93/99
f 51/99/101 47/98/102 74/97/101
f 74/97/101 73/100/101 51/99/101
f 47/101/103 46/88/104 75/87/103
f 75/87/103 74/102/105 47/101/103
f 46/89/106 45/88/107 76/87/106
f 76/87/106 75/103/108 46/89/106
f 45/93/109 49/92/110 77/91/109
f 77/91/109 76/94/111 45/93/109
f 49/93/112 48/96/112 78/95/112
f 78/95/112 77/94/113 49/93/112
f 48/99/114 50/98/115 79/97/114
f 79/97/114 78/100/114 48/99/114
f 50/101/116 63/88/117 80/87/116
f 80/87/116 79/102/118 50/101/116
f 63/89/119 62/88/120 81/87/119
f 81/87/119 80/90/121 63/89/119
f 62/93/122 64/92/123 82/91/122
f 82/91/122 81/94/124 62/93/122
f 64/93/103 58/96/125 83/95/103
f 83/95/103 82/94/126 64/93/103
f 58/99/127 57/98/127 84/97/127
f 84/97/127 83/100/127 58/99/127
f 57/101/128 60/88/128 66/87/128
f 66/87/128 84/102/128 57/101/128

